<mxfile host="app.diagrams.net" modified="2024-02-18T01:50:53.423Z" agent="Mozilla/5.0 (Windows NT 10.0; Win64; x64) AppleWebKit/537.36 (KHTML, like Gecko) Chrome/121.0.0.0 Safari/537.36 Edg/121.0.0.0" etag="KtmFMkCsWcw9DppuxEXM" version="23.1.5" type="github">
  <diagram name="第 1 页" id="nkp8aYEaPNFp8wNzXnUq">
    <mxGraphModel dx="1216" dy="704" grid="1" gridSize="10" guides="1" tooltips="1" connect="1" arrows="1" fold="1" page="1" pageScale="1" pageWidth="827" pageHeight="1169" math="0" shadow="0">
      <root>
        <mxCell id="0" />
        <mxCell id="1" parent="0" />
        <mxCell id="6D8GajH1BOsyRSV2feIX-1" value="&lt;div data-page-id=&quot;IYwNdD9Kmog2RRxrTEUcpd30ntg&quot; data-docx-has-block-data=&quot;true&quot;&gt;&lt;div style=&quot;text-align:center&quot; data-type=&quot;image&quot; data-ace-gallery-json=&quot;{&amp;quot;items&amp;quot;:[{&amp;quot;uuid&amp;quot;:&amp;quot;394480e6-6e61-402a-8567-c93c20a5d194&amp;quot;,&amp;quot;height&amp;quot;:425.58139534883725,&amp;quot;width&amp;quot;:610,&amp;quot;currHeight&amp;quot;:425.58139534883725,&amp;quot;currWidth&amp;quot;:610,&amp;quot;natrualHeight&amp;quot;:360,&amp;quot;natrualWidth&amp;quot;:516,&amp;quot;pluginName&amp;quot;:&amp;quot;imageUpload&amp;quot;,&amp;quot;scale&amp;quot;:1.182170542635659,&amp;quot;src&amp;quot;:&amp;quot;https%3A%2F%2Finternal-api-drive-stream.feishu.cn%2Fspace%2Fapi%2Fbox%2Fstream%2Fdownload%2Fpreview%2FQQZYb5Kf3oypRnxvfiqc4rGlnmb%2F%3Fpreview_type%3D16&amp;quot;,&amp;quot;file_token&amp;quot;:&amp;quot;QQZYb5Kf3oypRnxvfiqc4rGlnmb&amp;quot;,&amp;quot;image_type&amp;quot;:&amp;quot;image/png&amp;quot;,&amp;quot;size&amp;quot;:43750,&amp;quot;comments&amp;quot;:[]}]}&quot; class=&quot;image-uploaded gallery old-record-id-AkTEdZnp2obubzxQr4Nc60Jhnyc&quot;&gt;&lt;img src=&quot;https://tjq5fyq4tz.feishu.cn/space/api/box/stream/download/asynccode/?code=Nzc1NzlkOGNhMzFkZGEzZDc3YjYyNDRiNTgzZWIzZjRfdFp2QjNwMUloaUpwcnZHUkFEZXNwN1llcExiTWNDWDVfVG9rZW46UVFaWWI1S2Yzb3lwUm54dmZpcWM0ckdsbm1iXzE3MDgwNzA0MzE6MTcwODA3NDAzMV9WNA&quot; data-single-block=&quot;true&quot; data-snapshot=&quot;eyJ0eXBlIjoiaW1hZ2UiLCJwYXJlbnRfaWQiOiJJWXdOZEQ5S21vZzJSUnhyVEVVY3BkMzBudGciLCJjb21tZW50cyI6W10sInJldmlzaW9ucyI6bnVsbCwibG9ja2VkIjpmYWxzZSwiaGlkZGVuIjpmYWxzZSwiYXV0aG9yIjoiNzE1NzMyMzM2NDA1NzU0Njc1NSIsImFsaWduIjoiY2VudGVyIiwiaW1hZ2UiOnsidG9rZW4iOiJRUVpZYjVLZjNveXBSbnh2ZmlxYzRyR2xubWIiLCJtaW1lVHlwZSI6ImltYWdlL3BuZyIsInNpemUiOjQzNzUwLCJzY2FsZSI6MS4xODIxNzA1NDI2MzU2NTksIndpZHRoIjo1MTYsImhlaWdodCI6MzYwLCJuYW1lIjoiaW1hZ2UucG5nIiwiY3JvcCI6WzAsMCwwLDBdLCJyb3RhdGlvbiI6MCwiY2FwdGlvbiI6eyJ0ZXh0Ijp7ImFwb29sIjp7Im5leHROdW0iOjAsIm51bVRvQXR0cmliIjpudWxsfSwiaW5pdGlhbEF0dHJpYnV0ZWRUZXh0cyI6eyJhdHRyaWJzIjpudWxsLCJ0ZXh0IjpudWxsfX19fX0=&quot; data-suite=&quot;eyJmaWxlVG9rZW4iOiJRUVpZYjVLZjNveXBSbnh2ZmlxYzRyR2xubWIiLCJvYmpUeXBlIjoiZG9jeCIsIm9ialRva2VuIjoiQWtURWRabnAyb2J1Ynp4UXI0TmM2MEpobnljIiwib3JpZ2luU3JjIjoiaHR0cHM6Ly9pbnRlcm5hbC1hcGktZHJpdmUtc3RyZWFtLmZlaXNodS5jbi9zcGFjZS9hcGkvYm94L3N0cmVhbS9kb3dubG9hZC9wcmV2aWV3L1FRWlliNUtmM295cFJueHZmaXFjNHJHbG5tYi8/cHJldmlld190eXBlPTE2In0=&quot; data-src=&quot;https://internal-api-drive-stream.feishu.cn/space/api/box/stream/download/all/QQZYb5Kf3oypRnxvfiqc4rGlnmb/?mount_node_token=AkTEdZnp2obubzxQr4Nc60Jhnyc&amp;amp;mount_point=docx_image&quot; data-width=&quot;516&quot; data-height=&quot;360&quot;&gt;&lt;/div&gt;&lt;/div&gt;&lt;span data-lark-record-data=&quot;{&amp;quot;isCut&amp;quot;:true,&amp;quot;rootId&amp;quot;:&amp;quot;IYwNdD9Kmog2RRxrTEUcpd30ntg&amp;quot;,&amp;quot;parentId&amp;quot;:&amp;quot;IYwNdD9Kmog2RRxrTEUcpd30ntg&amp;quot;,&amp;quot;blockIds&amp;quot;:[22],&amp;quot;recordIds&amp;quot;:[&amp;quot;AkTEdZnp2obubzxQr4Nc60Jhnyc&amp;quot;],&amp;quot;recordMap&amp;quot;:{&amp;quot;AkTEdZnp2obubzxQr4Nc60Jhnyc&amp;quot;:{&amp;quot;id&amp;quot;:&amp;quot;AkTEdZnp2obubzxQr4Nc60Jhnyc&amp;quot;,&amp;quot;snapshot&amp;quot;:{&amp;quot;type&amp;quot;:&amp;quot;image&amp;quot;,&amp;quot;parent_id&amp;quot;:&amp;quot;IYwNdD9Kmog2RRxrTEUcpd30ntg&amp;quot;,&amp;quot;comments&amp;quot;:[],&amp;quot;revisions&amp;quot;:null,&amp;quot;locked&amp;quot;:false,&amp;quot;hidden&amp;quot;:false,&amp;quot;author&amp;quot;:&amp;quot;7157323364057546755&amp;quot;,&amp;quot;align&amp;quot;:&amp;quot;center&amp;quot;,&amp;quot;image&amp;quot;:{&amp;quot;token&amp;quot;:&amp;quot;QQZYb5Kf3oypRnxvfiqc4rGlnmb&amp;quot;,&amp;quot;mimeType&amp;quot;:&amp;quot;image/png&amp;quot;,&amp;quot;size&amp;quot;:43750,&amp;quot;scale&amp;quot;:1.182170542635659,&amp;quot;width&amp;quot;:516,&amp;quot;height&amp;quot;:360,&amp;quot;name&amp;quot;:&amp;quot;image.png&amp;quot;,&amp;quot;crop&amp;quot;:[0,0,0,0],&amp;quot;rotation&amp;quot;:0,&amp;quot;caption&amp;quot;:{&amp;quot;text&amp;quot;:{&amp;quot;apool&amp;quot;:{&amp;quot;nextNum&amp;quot;:0,&amp;quot;numToAttrib&amp;quot;:null},&amp;quot;initialAttributedTexts&amp;quot;:{&amp;quot;attribs&amp;quot;:null,&amp;quot;text&amp;quot;:null}}}}}},&amp;quot;IYwNdD9Kmog2RRxrTEUcpd30ntg&amp;quot;:{&amp;quot;id&amp;quot;:&amp;quot;IYwNdD9Kmog2RRxrTEUcpd30ntg&amp;quot;,&amp;quot;snapshot&amp;quot;:{&amp;quot;type&amp;quot;:&amp;quot;page&amp;quot;,&amp;quot;parent_id&amp;quot;:&amp;quot;&amp;quot;,&amp;quot;comments&amp;quot;:null,&amp;quot;revisions&amp;quot;:null,&amp;quot;locked&amp;quot;:false,&amp;quot;hidden&amp;quot;:false,&amp;quot;author&amp;quot;:&amp;quot;7157323364057546755&amp;quot;,&amp;quot;children&amp;quot;:[&amp;quot;OHiLdbL0LoEjGYxmxvJcLBSLnhb&amp;quot;,&amp;quot;HeTzdDOY9oq5E5xJcxzcDWbHnId&amp;quot;,&amp;quot;JVi1dD2IaopdbfxygYacqaolnLd&amp;quot;,&amp;quot;WXhMdZky0oG301x4TwAcH6D8nXf&amp;quot;,&amp;quot;WYIMda88LoftPnxseafcKEo3nbg&amp;quot;,&amp;quot;KaJcdPRbGox1Q2xCZKmcsQdMn0g&amp;quot;,&amp;quot;Oz4VdyR4EoMy8gxK0R9cQagJnKg&amp;quot;,&amp;quot;HbMqdkajAoldf1x1u3Ecbr6Anie&amp;quot;,&amp;quot;DpzodLK4No3zGnxDm3JcUXO5nse&amp;quot;,&amp;quot;EQwgdIWPOovJ1zxuxQvcKr0Wnfc&amp;quot;,&amp;quot;QqV5dyxK0o4yDpx913QcNTGMn6g&amp;quot;,&amp;quot;KpIqdP8TJovFEUx5GCjcxwImnQe&amp;quot;,&amp;quot;Ae9BdwPT7oIMEuxU2q2cvMivnlf&amp;quot;,&amp;quot;Lc7EdNjnloSHU5xzh0scV2pWn1b&amp;quot;,&amp;quot;OKbhdDLLKozwwqxFHQ1cYjbxn0d&amp;quot;,&amp;quot;FKcld10xEoHTA8xByd4cZQOcnpf&amp;quot;,&amp;quot;Exaidg7oEoRVVnxvS77cAN6JnIo&amp;quot;,&amp;quot;CELkdgQ1woJuCexxbYtcHA3enyf&amp;quot;,&amp;quot;ZWv2d3PFpo8XG1xOFaZczZHVnYb&amp;quot;,&amp;quot;ZtsZdRqFCoLoHbxOVFwcs5uOnwb&amp;quot;,&amp;quot;YNuXdJlT4oacuyxMJBqcjfeUnte&amp;quot;,&amp;quot;FBnOdX9eKorK9gxNYbocgpK9nDc&amp;quot;,&amp;quot;EcDwd7OtDoky8MxHk1RcGcMQnIb&amp;quot;,&amp;quot;IBnzd12YmoHz5BxPyrXcbAZwnbc&amp;quot;,&amp;quot;TcCAdeTfuoOTIUx9N3XchF8BnFs&amp;quot;,&amp;quot;HEVSdLtERoCwojxXWr4cBgJ7nSe&amp;quot;,&amp;quot;NEmSdivSdoHL9JxwDoucyI9qnag&amp;quot;,&amp;quot;NENUdtpW5okdopxDnzjcBayDnAh&amp;quot;,&amp;quot;JD6Ud6YU1oAo7Vx2k6ucGMeKnM9&amp;quot;,&amp;quot;JowhdQen0oFXo8xniWWcElT1nRc&amp;quot;,&amp;quot;AkTEdZnp2obubzxQr4Nc60Jhnyc&amp;quot;,&amp;quot;Tho7dFtQFokaQNxqS7rc6FlpnQc&amp;quot;,&amp;quot;B5JYd3VeWoVuZrxuHX5cFpXznOf&amp;quot;,&amp;quot;EnqOdJHM1oGaNfx4qcxcdCAunob&amp;quot;,&amp;quot;NULgd5vs8oy7lVxxl8GcBgUlndb&amp;quot;,&amp;quot;FEFIdBtlko4h2txMjt4c0Rnnnze&amp;quot;,&amp;quot;JiX0dJLshobFQXxNuWicHgx4nnd&amp;quot;,&amp;quot;UQffdajI7o13JWxNjvkceIDunyd&amp;quot;,&amp;quot;Uwbwd8eIIolaPaxuHlZcEs39n2l&amp;quot;,&amp;quot;MabEdir7OoOFWvx4B2gcqyfDnig&amp;quot;,&amp;quot;XeGDdIAKloodmnxHegvc4YNCnOg&amp;quot;,&amp;quot;BEBEdYq6Wo5524xM78ycOvw8nBg&amp;quot;,&amp;quot;EfT9dVJKio8iGYxSbv7cmavHnpd&amp;quot;,&amp;quot;PbYxdVzyoogEkAxdGHdc1xRSnOZ&amp;quot;,&amp;quot;TWSydC8ypoC8rVx4fyHchg5hnVd&amp;quot;,&amp;quot;JnR7d9HKlo5EYSxsVZpcyDnIn8W&amp;quot;,&amp;quot;MSl4dlOgao8PJkxlxrzcrgwin2f&amp;quot;,&amp;quot;PlmTdZGwJoWCH4xxUyfcMgJKnZc&amp;quot;,&amp;quot;Ncccdh5VRo5cEgxeAApc84PDnyc&amp;quot;,&amp;quot;IKSfdoQVVoFmNFxQB5lcDDOtnXb&amp;quot;,&amp;quot;IIELd5TnYoZet8xdzEWc4ooVnmh&amp;quot;,&amp;quot;IAjddAkmIo01fxxMZlCcG146nzf&amp;quot;,&amp;quot;EB6Hdqut0o7pt9xhSLYcweEMn6f&amp;quot;,&amp;quot;LYh4dQQxToRi6VxY0pgcZWZInPe&amp;quot;,&amp;quot;T61EdLeXgo3hg9xmA2CcFgW0n7b&amp;quot;,&amp;quot;P5fIdWVj2ovR7yxgQA5cz5eLnVf&amp;quot;,&amp;quot;QfEndIiAToE0OQxOClicbbVsn6g&amp;quot;,&amp;quot;YLZWdZdEYou907xA0IGc0Ibjnrf&amp;quot;,&amp;quot;F3widNDh2o5QSYxN8JncnJcynPh&amp;quot;,&amp;quot;OioddPgqLoRJ5DxpMz9c39e7n0g&amp;quot;,&amp;quot;SmZUdQ7x5o7PWKxKWBocSxiQnke&amp;quot;,&amp;quot;UO9JdYbHeoGu2YxxY9cct09xn9d&amp;quot;,&amp;quot;DqqqdnlQeopdg9xEUIvcNaU2nGd&amp;quot;,&amp;quot;Oz82dHXK3o3hKwxvG8uc0omMnie&amp;quot;,&amp;quot;DYepdPDIDoxB1CxqrVCcgOzwn6e&amp;quot;,&amp;quot;ZH3Rd2dZmovhOKxzXXOcnXRsnub&amp;quot;,&amp;quot;GaEVdrFYxou36Ox3KP6cU2N8npc&amp;quot;,&amp;quot;Jsq2ds7cMobQDgxL5d5chIPbnPb&amp;quot;,&amp;quot;LXM2d2hgboOHW0xnr9vcsRkhnMe&amp;quot;,&amp;quot;R7eJduJEJo9LofxkrticSOqenSd&amp;quot;,&amp;quot;Ktkads2JooSOM0xgaH7c3ulRnoa&amp;quot;,&amp;quot;KGQVdojFIo4mxAxRQK2c3ia0nsh&amp;quot;,&amp;quot;QDoldYkMjoIm0BxlhexcAAq0n9c&amp;quot;,&amp;quot;BBKddiWFqoTLehxikq3cYNC7nRe&amp;quot;],&amp;quot;text&amp;quot;:{&amp;quot;apool&amp;quot;:{&amp;quot;nextNum&amp;quot;:1,&amp;quot;numToAttrib&amp;quot;:{&amp;quot;0&amp;quot;:[&amp;quot;author&amp;quot;,&amp;quot;7157323364057546755&amp;quot;]}},&amp;quot;initialAttributedTexts&amp;quot;:{&amp;quot;attribs&amp;quot;:{&amp;quot;0&amp;quot;:&amp;quot;*0+j&amp;quot;},&amp;quot;text&amp;quot;:{&amp;quot;0&amp;quot;:&amp;quot;基于小样本学习算法的锂离子电池寿命预测&amp;quot;}}},&amp;quot;align&amp;quot;:&amp;quot;&amp;quot;,&amp;quot;doc_info&amp;quot;:{&amp;quot;editors&amp;quot;:[&amp;quot;7157323364057546755&amp;quot;,&amp;quot;7156582420861435906&amp;quot;,&amp;quot;6974738619101659140&amp;quot;],&amp;quot;options&amp;quot;:[&amp;quot;editors&amp;quot;,&amp;quot;create_time&amp;quot;],&amp;quot;deleted_editors&amp;quot;:[]}}}},&amp;quot;payloadMap&amp;quot;:{},&amp;quot;extra&amp;quot;:{&amp;quot;channel&amp;quot;:&amp;quot;saas&amp;quot;,&amp;quot;mention_page_title&amp;quot;:{},&amp;quot;external_mention_url&amp;quot;:{}},&amp;quot;isKeepQuoteContainer&amp;quot;:false,&amp;quot;selection&amp;quot;:[{&amp;quot;id&amp;quot;:22,&amp;quot;type&amp;quot;:&amp;quot;block&amp;quot;,&amp;quot;recordId&amp;quot;:&amp;quot;AkTEdZnp2obubzxQr4Nc60Jhnyc&amp;quot;}],&amp;quot;pasteFlag&amp;quot;:&amp;quot;585a96ad-84a9-456e-aa7c-10851361e015&amp;quot;}&quot; data-lark-record-format=&quot;docx/record&quot; class=&quot;lark-record-clipboard&quot;&gt;&lt;/span&gt;" style="text;whiteSpace=wrap;html=1;" parent="1" vertex="1">
          <mxGeometry x="140" y="20" width="30" height="40" as="geometry" />
        </mxCell>
        <mxCell id="6D8GajH1BOsyRSV2feIX-6" value="" style="shape=partialRectangle;whiteSpace=wrap;html=1;left=0;right=0;fillColor=none;strokeWidth=2;" parent="1" vertex="1">
          <mxGeometry x="60" y="450" width="600" height="420" as="geometry" />
        </mxCell>
        <mxCell id="6D8GajH1BOsyRSV2feIX-7" value="" style="line;strokeWidth=2;html=1;" parent="1" vertex="1">
          <mxGeometry x="60" y="474" width="600" height="10" as="geometry" />
        </mxCell>
        <mxCell id="6D8GajH1BOsyRSV2feIX-8" value="&lt;b style=&quot;font-size: 14px;&quot;&gt;&lt;font style=&quot;font-size: 14px;&quot;&gt;Algorithm 1&lt;/font&gt;&lt;/b&gt; &lt;font style=&quot;font-size: 14px;&quot;&gt;Cycle Life Prediction&lt;/font&gt;" style="text;html=1;align=center;verticalAlign=middle;resizable=0;points=[];autosize=1;strokeColor=none;fillColor=none;fontSize=14;" parent="1" vertex="1">
          <mxGeometry x="50" y="450" width="230" height="30" as="geometry" />
        </mxCell>
        <mxCell id="6D8GajH1BOsyRSV2feIX-9" value="&lt;font style=&quot;font-size: 14px;&quot;&gt;Input:&lt;/font&gt;" style="text;html=1;align=center;verticalAlign=middle;resizable=0;points=[];autosize=1;strokeColor=none;fillColor=none;fontStyle=1;fontSize=16;" parent="1" vertex="1">
          <mxGeometry x="50" y="480" width="60" height="30" as="geometry" />
        </mxCell>
      </root>
    </mxGraphModel>
  </diagram>
</mxfile>
